<?xml version="1.0" encoding="utf-8"?>

<!DOCTYPE svg PUBLIC "-//W3C//DTD SVG 1.1//EN" "http://www.w3.org/Graphics/SVG/1.1/DTD/svg11.dtd">
<!-- Uploaded to: SVG Repo, www.svgrepo.com, Generator: SVG Repo Mixer Tools -->
<svg height="800px" width="800px" version="1.1" id="_x32_" xmlns="http://www.w3.org/2000/svg" xmlns:xlink="http://www.w3.org/1999/xlink" 
	 viewBox="0 0 512 512"  xml:space="preserve">
<style type="text/css">
	.st0{fill:#000000;}
</style>
<g>
	<path class="st0" d="M474.702,117.69C449.694,45.132,368.198,11.312,334.423,14.753c-1.198,40.64-34.072,73.244-74.594,73.289
		c-40.523,0-73.441-32.568-74.684-73.198C99.918,24.285,78.414,53.42,57.666,117.925l-0.008,0.072
		C40.351,196.475,0,235.618,0,235.618l92.982,35.532l26.188-41.351c-0.405,21.324-7.711,102.658-89.234,210.477
		c0,0,159.91,83.027,334.46,49.036c29.288-87.874,42.243-199.712,45.315-258.135l13.838,63.036l88.45-7.856
		C512,233.312,491.045,165.096,474.702,117.69z"/>
</g>
</svg>